<svg width="720" height="540" viewBox="0 0 720 540" fill="none" xmlns="http://www.w3.org/2000/svg">
  <rect width="720" height="540" rx="36" fill="#F5F9FC"/>
  <rect x="40" y="56" width="640" height="428" rx="30" fill="#E6EEF5"/>
  <rect x="70" y="86" width="240" height="290" rx="26" fill="#D3E1EC"/>
  <rect x="94" y="110" width="192" height="146" rx="20" fill="#FDFEFF"/>
  <rect x="112" y="128" width="62" height="110" rx="14" fill="#F1F6FA"/>
  <rect x="184" y="128" width="84" height="110" rx="14" fill="#F1F6FA"/>
  <rect x="104" y="288" width="174" height="16" rx="8" fill="#BBCDDD"/>
  <rect x="92" y="318" width="198" height="28" rx="14" fill="#FFFFFF"/>
  <rect x="356" y="104" width="286" height="198" rx="30" fill="#143B5E"/>
  <rect x="382" y="130" width="116" height="116" rx="20" fill="#F2F7FA"/>
  <rect x="516" y="130" width="100" height="116" rx="20" fill="#2B577E"/>
  <rect x="384" y="262" width="232" height="18" rx="9" fill="#1E4B74"/>
  <rect x="402" y="338" width="188" height="74" rx="26" fill="#FFFFFF"/>
  <rect x="388" y="356" width="216" height="18" rx="9" fill="#D5E3EE"/>
  <rect x="412" y="374" width="94" height="14" rx="7" fill="#BBCDDD"/>
  <rect x="542" y="376" width="44" height="14" rx="7" fill="#BBCDDD"/>
  <path d="M152 404C152 364.235 184.235 332 224 332H276C315.765 332 348 364.235 348 404V430H152V404Z" fill="#CAD9E5"/>
  <rect x="184" y="366" width="132" height="62" rx="24" fill="#ECF3F8"/>
  <rect x="208" y="346" width="34" height="38" rx="16" fill="#F8FBFD"/>
  <rect x="254" y="346" width="34" height="38" rx="16" fill="#F8FBFD"/>
  <rect x="118" y="430" width="508" height="18" rx="9" fill="#C0D2E0"/>
  <rect x="572" y="314" width="16" height="116" rx="8" fill="#466A8B"/>
  <path d="M540 332C540 319.85 549.85 310 562 310H598C610.15 310 620 319.85 620 332V344H540V332Z" fill="#EFF5F9"/>
  <circle cx="130" cy="410" r="14" fill="#8DB79E"/>
  <circle cx="146" cy="392" r="18" fill="#739F86"/>
  <rect x="134" y="412" width="8" height="24" rx="4" fill="#7B5B47"/>
  <circle cx="582" cy="150" r="18" fill="#3F6A91"/>
  <circle cx="618" cy="106" r="48" fill="#275176" fill-opacity="0.22"/>
</svg>
